<svg xmlns="http://www.w3.org/2000/svg" viewBox="0 0 587.82 512.84"><defs><style>.cls-1,.cls-3{fill:#231f20;}.cls-2{fill:#fff;}.cls-3{fill-rule:evenodd;}.cls-4{fill:#f1ede0;}.cls-5{fill:#352949;stroke:#352949;}.cls-5,.cls-6{stroke-width:0.46px;}.cls-6{fill:#48659f;stroke:#48659f;}</style></defs><title>psconfeu-logo-blue</title><g id="Layer_2" data-name="Layer 2"><g id="svg17130"><g id="g17138"><g id="g17379"><path id="path17144" class="cls-1" d="M477.94,415.83c-2.26-16.38-3.4-24.57-5.66-40.94s-3.37-24.56-5.63-40.94c12.05-1.67,18.07-2.57,30.09-4.53,27.17-4.41,40.71-7,67.67-12.9-10.24,19.16-15.6,28.69-26.8,47.65,17.37,13.53,26.29,20.15,44.5,33.08C553.39,403.54,539,406.3,510,411c-12.81,2.08-19.24,3.05-32.08,4.82"/><path id="path17146" class="cls-2" d="M469.3,336,480,413.17c11.32-1.57,17.6-2.52,29.69-4.49,27.25-4.43,41.37-7.08,66.77-12.6C560.88,385,552.19,378.51,536.16,366l-1.63-1.27,1.05-1.78c10.37-17.55,15.64-26.86,24.34-43.07-23.89,5.18-37.18,7.67-62.8,11.84-11.24,1.83-17.14,2.73-27.82,4.21Zm6.63,82.52L464,331.94l2.34-.32c12.15-1.68,18.05-2.57,30-4.52,27.24-4.43,40.5-7,67.54-12.89l5-1.09-2.41,4.5c-9.93,18.6-15.19,28-25.8,46,16.33,12.69,25.06,19.16,42.79,31.74l4.34,3.08-5.2,1.14c-28.9,6.34-43.07,9-72.22,13.78-12.94,2.1-19.25,3.05-32.14,4.83l-2.33.32"/><path id="path17148" class="cls-1" d="M121.19,334c-2.26,16.37-3.38,24.55-5.64,40.93l-5.65,40.93c-12.84-1.77-19.26-2.73-32.06-4.82-28.94-4.7-43.37-7.46-72.09-13.75,18.4-12.89,27.39-19.49,44.94-33-11.38-19-16.84-28.54-27.25-47.74,27,5.91,40.51,8.49,67.68,12.91,12,2,18,2.86,30.07,4.53"/><path id="path17150" class="cls-2" d="M11.5,396.09c25.34,5.51,39.45,8.16,66.72,12.59,12,1.95,18.29,2.91,29.67,4.48L118.54,336c-10.63-1.47-16.53-2.37-27.8-4.2C65.1,327.59,51.8,325.09,28,319.92c8.9,16.33,14.25,25.64,24.74,43.13l1.08,1.81-1.67,1.27c-16.24,12.49-25,19-40.62,30Zm100.41,22.38-2.33-.32c-13-1.78-19.26-2.73-32.12-4.82-29.19-4.75-43.36-7.45-72.21-13.78L0,398.4l4.4-3.08C22.22,382.84,31,376.38,47.59,363.67c-10.73-17.92-16.07-27.31-26.22-46l-2.45-4.52,5,1.1c27,5.92,40.26,8.45,67.55,12.89,12,1.95,17.91,2.84,30,4.51l2.34.32-11.94,86.53"/><path id="path17152" class="cls-2" d="M69.54,343.14l46.6-7.27"/><path id="path17154" class="cls-2" d="M70,346.18l-.94-6.08,46.6-7.26.94,6.06L70,346.18"/><path id="path17156" class="cls-2" d="M517.66,343.18l-46.6-7.27"/><path id="path17158" class="cls-2" d="M517.19,346.22,470.59,339l.94-6.07,46.6,7.27-.94,6.07"/><path id="path17160" class="cls-3" d="M70.83,61S182.34,0,293.89,0,517,61,517,61c0,77.18,12.18,240.63-77.35,346-45.47,53.55-145.78,105.82-145.78,105.82S193.62,460.56,148.15,407C58.66,301.62,70.83,138.18,70.83,61"/><path id="path17162" class="cls-3" d="M148.47,55.1C189.08,40.29,242,26,293.89,26S398.69,40.29,439.33,55.1a586.34,586.34,0,0,1,54.55,23c.47,37.59,2,90-5,145.17C481,284.83,462.59,347,422,394.78c-33.61,39.56-101.73,79.7-128.08,94.39-26.33-14.69-94.43-54.85-128-94.39C125.23,347,106.83,284.83,99,223.25c-7.07-55.11-5.49-107.56-5-145.17a589.22,589.22,0,0,1,54.52-23"/><path id="path17164" class="cls-4" d="M98.55,81l-.11,7.81c-.53,35.49-1.25,84.08,5.13,133.83,9.27,72.56,30.8,127.87,65.81,169.11,32.12,37.8,96.09,76.11,124.49,92.08,28.41-16,92.43-54.27,124.55-92.08,35-41.23,56.56-96.54,65.83-169.09,6.36-49.65,5.66-98.15,5.14-133.58L489.28,81c-11.78-5.63-29.62-13.58-51.54-21.57-36.07-13.14-90.31-28.81-143.85-28.81S186.11,46.32,150.06,59.46c-21.89,8-39.73,15.93-51.51,21.56ZM293.87,494.49l-2.27-1.26c-27.55-15.38-95.31-55.46-129.29-95.44-36.22-42.66-58.45-99.56-68-174-6.46-50.4-5.73-99.38-5.2-135.15l.19-13.53,2.58-1.25a595.28,595.28,0,0,1,55-23.18c36.75-13.4,92.08-29.37,147-29.37s110.25,16,147,29.37a595.26,595.26,0,0,1,55,23.19l2.58,1.25.19,13.8c.52,35.7,1.23,84.59-5.22,134.89-9.5,74.38-31.73,131.28-68,173.93-34,40-101.79,80.07-129.36,95.44l-2.26,1.26"/><path id="path17166" class="cls-2" d="M188.45,141.18V270.34l97.28-64.58ZM158.56,326.05V85.47L339.77,205.76,158.56,326.05"/><path id="path17168" class="cls-2" d="M257.17,85.47V121l127.64,84.74L257.17,290.49v35.56L438.38,205.76,257.17,85.47"/><path id="path17170" class="cls-2" d="M310,326.05H438.38V298.19H352l-42,27.86"/><path id="path17172" class="cls-1" d="M70.71,342.66c150.06,23.75,296.22,23.77,446.27,0,5.77,32.56,8.65,48.84,14.41,81.39-159.52,25.49-315.58,25.48-475.1,0,5.77-32.56,8.66-48.84,14.42-81.38"/><path id="path17174" class="cls-2" d="M59,422.09a1506.9,1506.9,0,0,0,234.88,18.72,1507.52,1507.52,0,0,0,234.74-18.7l-13.58-76.75A1432.53,1432.53,0,0,1,294,362.83,1434.37,1434.37,0,0,1,72.63,345.34Zm234.88,23.43a1512.08,1512.08,0,0,1-238-19.16L53.55,426l15.24-86,2.29.36A1430.24,1430.24,0,0,0,294,358.13a1429.62,1429.62,0,0,0,222.67-17.78l2.28-.37,15.23,86-2.37.38a1512.47,1512.47,0,0,1-237.85,19.13"/><path id="path17176" class="cls-2" d="M114.66,386.41l2.38.33a9.73,9.73,0,0,0,5.08-.31,4,4,0,0,0,2.5-3.19,3.78,3.78,0,0,0-1.19-3.34,8.44,8.44,0,0,0-4.8-1.86l-2.77-.38-1.2,8.75Zm-1.38,10c-.31,2.31-.47,3.47-.79,5.78l4.66.5c-.53,3.94-.79,5.91-1.32,9.85-9.18-1.23-13.75-1.88-22.91-3.27.59-3.93.88-5.9,1.48-9.82l4.62.82,3.65-24.62-4.58-.55c.59-3.92.9-5.88,1.49-9.8,9.59,1.46,14.39,2.14,24,3.41,5.83.78,10,2.73,12.65,5.91a14,14,0,0,1,3,11,14.52,14.52,0,0,1-3.17,7.72q-4.55,5.51-14.85,4.17c-3.18-.41-4.76-.63-7.94-1.06"/><path id="path17178" class="cls-2" d="M140.64,415.13c.72-6.22,1.07-9.33,1.79-15.56,4.83.55,7.26.82,12.09,1.33a10.38,10.38,0,0,0,1.19,2.67,9,9,0,0,0,1.86,1.91,12.47,12.47,0,0,0,6.76,2.93,4.71,4.71,0,0,0,3.8-1,2.4,2.4,0,0,0,.83-1.55,2.7,2.7,0,0,0-1.07-2.29,11.83,11.83,0,0,0-4.52-1.72l-6.47-1.54c-5.64-1.38-9.58-3.39-11.81-6a13.21,13.21,0,0,1,3.15-19.61A18.07,18.07,0,0,1,160,372.13a24.3,24.3,0,0,1,11.77,4.93c.11-1.23.18-1.84.3-3.07,4.68.44,7,.65,11.68,1-.49,5.79-.73,8.68-1.23,14.47-4.92-.42-7.39-.64-12.31-1.11a7.72,7.72,0,0,0-2-3.36,10.12,10.12,0,0,0-6.39-3.28,5.09,5.09,0,0,0-3.84.89,2.17,2.17,0,0,0-.84,1.52,2.43,2.43,0,0,0,.68,2,6,6,0,0,0,2.65,1.59c.79.25,1.78.52,3,.79,2.63.61,3.94.91,6.58,1.5q7.37,1.64,11,5.93a12.9,12.9,0,0,1,3.15,9.81,13.82,13.82,0,0,1-5.78,10.39c-3.36,2.5-7.58,3.53-12.58,3a21.51,21.51,0,0,1-12.69-5.58c-.12,1.14-.19,1.72-.31,2.86-4.89-.52-7.33-.79-12.22-1.36"/><path id="path17180" class="cls-2" d="M235.93,378.48c-.31,6.94-.47,10.41-.78,17.35-5.26-.23-7.88-.37-13.14-.66a9.65,9.65,0,0,0-2-3.43,9.35,9.35,0,0,0-6.39-2.69,9.86,9.86,0,0,0-8,2.91,10.82,10.82,0,0,0-3.09,7.13,10.18,10.18,0,0,0,3.18,8.51,10.72,10.72,0,0,0,7,3,9.67,9.67,0,0,0,7.23-2.25,6.2,6.2,0,0,0,1.54-2.37c6.11.34,9.16.49,15.28.75a25,25,0,0,1-2.53,5.47,22.76,22.76,0,0,1-9.1,8,26.69,26.69,0,0,1-13.66,2.59c-7-.43-12.78-3-17.12-7.6s-6.37-10.55-5.82-17.42a23,23,0,0,1,7.25-15.41,21.45,21.45,0,0,1,8.63-5,23,23,0,0,1,8-.91,18.56,18.56,0,0,1,9,2.66c.48.31,1.17.82,2,1.52l.15-2.76c5,.26,7.44.38,12.4.6"/><path id="path17182" class="cls-2" d="M264.31,391.33a10.92,10.92,0,0,0-8.27,3.18,9.89,9.89,0,0,0-2.85,6.93,9.69,9.69,0,0,0,3,7.64,11.17,11.17,0,0,0,7.7,3,10.64,10.64,0,0,0,8.31-3.29A9.86,9.86,0,0,0,275,402a9.66,9.66,0,0,0-3.52-8,11.44,11.44,0,0,0-7.14-2.59Zm.42-12.63A24.5,24.5,0,0,1,286.15,392a22.85,22.85,0,0,1,2.58,10.76,20.71,20.71,0,0,1-3.79,11.74,23.19,23.19,0,0,1-8.41,7.48,27,27,0,0,1-26.7-1.17,22,22,0,0,1-10.2-19.74A21.91,21.91,0,0,1,248.34,384a24.75,24.75,0,0,1,16.39-5.3"/><path id="path17184" class="cls-2" d="M340.33,423.6c-5,.18-7.45.26-12.41.38-7.37-9-11-13.59-18.11-22.73.06,5.32.1,8,.16,13.29l4.68-.19.15,9.9c-8.92.14-13.38.17-22.31.16V414.5l4.68.13c0-10,0-14.94-.06-24.91-1.84.06-2.75.08-4.59.12,0-3.95,0-5.93,0-9.9,6.81,0,10.21,0,17-.09,6.71,9,10.12,13.42,17.06,22.3-.13-5.14-.19-7.7-.32-12.83l-4.6.23c-.08-4-.12-5.93-.21-9.9,8.75-.18,13.12-.31,21.86-.65.15,4,.23,5.94.38,9.9l-4.6,0c.48,13.87.72,20.8,1.21,34.66"/><path id="path17186" class="cls-2" d="M373.48,404.24l-6.84.39c.18,3.2.27,4.79.45,8l6.21-.49c.23,3.95.36,5.94.59,9.89-9.82.58-14.74.83-24.56,1.23-.17-3.95-.25-5.93-.41-9.89l4.66-.07c-.44-10-.66-14.94-1.11-24.89l-4.57.32c-.17-4-.25-5.93-.41-9.89,15.92-.66,23.87-1.11,39.77-2.26.45,6.26.68,9.38,1.13,15.63-5.11.37-7.66.54-12.77.86-.15-2.3-.22-3.45-.37-5.75-3.81.23-5.71.34-9.53.55.13,2.3.19,3.46.32,5.76l6.78-.39c.26,4.4.39,6.6.66,11"/><path id="path17188" class="cls-2" d="M388.53,408.3a7.57,7.57,0,0,1,5,1.36,6.67,6.67,0,0,1,3,5.19,5.88,5.88,0,0,1-1.4,4.3,7.24,7.24,0,0,1-5.29,2.71,7.55,7.55,0,0,1-5.29-1.56,6.41,6.41,0,0,1-2.66-4.85,6.28,6.28,0,0,1,2.37-5.45,7.18,7.18,0,0,1,4.25-1.7"/><path id="path17190" class="cls-2" d="M447.83,415.55c-17.58,2-26.38,2.9-44,4.35-.33-3.95-.5-5.92-.82-9.87l4.67-.26c-.84-9.93-1.28-14.89-2.13-24.82l-4.56.51c-.33-3.95-.48-5.93-.81-9.87,17.05-1.4,25.56-2.24,42.56-4.2.73,6.31,1.09,9.47,1.82,15.79-5.16.59-7.73.87-12.9,1.42-.25-2.39-.38-3.58-.63-6-4.87.52-7.31.76-12.19,1.23.23,2.39.35,3.58.58,6,3.67-.35,5.51-.54,9.18-.91.45,4.34.68,6.51,1.13,10.85-3.71.38-5.57.57-9.27.92.3,3.09.45,4.63.74,7.72,5-.47,7.46-.73,12.42-1.26-.34-3.24-.52-4.87-.86-8.12,5.2-.55,7.82-.84,13-1.43.83,7.18,1.24,10.77,2.06,17.95"/><path id="path17192" class="cls-2" d="M451.56,380.18l-4.54.67c-.47-3.93-.69-5.9-1.16-9.84,8.87-1,13.3-1.6,22.15-2.8.53,3.92.8,5.89,1.32,9.81l-4.56.48c.73,5.57,1.09,8.35,1.83,13.92.45,3.47,1.19,5.73,2.16,6.78a6.42,6.42,0,0,0,10.11-1.39,6.2,6.2,0,0,0,.72-3,26.62,26.62,0,0,0-.3-3.38l-2.07-14.61-4.58.77-1.35-9.81c8.88-1.23,13.32-1.88,22.19-3.26.61,3.91.91,5.87,1.52,9.78-1.83.24-2.74.36-4.57.58.95,6.23,1.42,9.35,2.38,15.59.71,4.68.7,8.16,0,10.44a15.59,15.59,0,0,1-7.36,8.82,24.48,24.48,0,0,1-9.33,3.16,24.89,24.89,0,0,1-10.76-.72,15.53,15.53,0,0,1-8.89-6.65,20.38,20.38,0,0,1-2.86-8.51l-2.05-16.81"/><path id="path17235" class="cls-5" d="M263.15,357.58c-36.56-.91-71.66-3.09-109.34-6.8L141,349.51l-4.41-9.06A261.14,261.14,0,0,1,122,304.93c-17.48-51.52-25-116.2-23.6-202.12l.36-21.65,7.71-3.58C153.37,55.89,206.25,40,252,33.79c15.71-2.13,22.49-2.55,41.29-2.56,19,0,24.49.29,40.6,2.34C377,39,426.56,53.4,473.09,73.9c14.18,6.25,15.61,7,15.93,8.17.47,1.76.34,66.3-.16,79-2.6,66.45-12,118-29.43,161.16-3.12,7.72-8.59,19.64-11.23,24.45l-1.55,2.81-5.41.57c-58.24,6.07-123.8,8.82-178.09,7.48Zm-49.77-67.65,90.55-60.1c19.95-13.25,36-24.16,35.73-24.38S222.06,127.27,159.58,85.84l-1-.69V205.6c0,66.24.09,120.44.21,120.44s24.71-16.25,54.63-36.11Zm134.86-24.05c49.52-32.87,90-60,89.9-60.21-.13-.4-180.59-120.41-181.06-120.41-.1,0-.18,8.09-.17,18l0,18,63.41,42.06c34.88,23.14,63.46,42.24,63.53,42.45s-28.48,19.36-63.43,42.54l-63.55,42.15v17.87c0,15.15.1,17.82.65,17.61.36-.14,41.17-27.14,90.7-60Zm90.52,46.24V298.21H351.6l-21,13.91-21,13.92H438.76Z"/><path id="path17237" class="cls-5" d="M188.69,205.87c0-35.21.09-64,.21-64s21.86,14.38,48.33,32l48.12,32-22,14.58-48.33,32-26.33,17.46Z"/><path id="path17239" class="cls-5" d="M289.6,481.17c-8.69-5-22.38-13.2-29.93-17.94-10.24-6.43-28.37-18.5-28.14-18.73s5.06,0,11,.3c26.76,1.18,93.15,1,110.13-.28,3.31-.25,3.64-.2,3,.42-1.13,1.13-19.35,13.12-30.62,20.15-12.21,7.61-30.41,18.23-31.22,18.22a25.17,25.17,0,0,1-4.27-2.14Z"/><path id="path17256" class="cls-6" d="M52.52,404.14c-7.69-1.4-38.29-7.61-39.25-8s-.06-1,6.14-5.41c3.92-2.77,13.34-9.71,20.93-15.42,13.29-10,13.77-10.42,13.16-11.4-7.63-12.25-25.09-43.15-24.5-43.35.2-.07,6,1,12.87,2.45,20,4.13,60.76,11.23,61.93,10.8.21-.08-.55-2.44-1.68-5.25-13.37-33.15-22.8-73.82-27.52-118.76-3.37-32.1-4.41-62.22-3.93-113.82L71,61.07l7.24-3.62C136.39,28.33,203.55,7.82,259.67,2a352,352,0,0,1,78.18,1.12c53,6.78,117,26.92,170.5,53.69l8.12,4.06.36,12.29c.49,16.33.08,87.62-.55,97.9-2.09,33.7-4.79,57.81-9.1,81.19-5.08,27.54-12.53,54-21.53,76.49a24.47,24.47,0,0,0-1.69,5.05c.56.57,45.16-7.2,63.27-11,6.2-1.3,11.45-2.31,11.67-2.23s-.86,2.44-2.4,5.25c-4.75,8.67-13.31,23.76-17.89,31.54l-4.36,7.41,1.74,1.4c4.93,4,21.52,16.51,30,22.66,5.29,3.84,9.55,7.05,9.46,7.14-.58.58-44.32,9.16-44.71,8.77-.1-.11-2.75-14.62-5.87-32.24s-5.77-32.14-5.88-32.25-31.47-5.15-34.45-5.47c-1.2-.13-1.4.09-2.62,2.92l-1.31,3.06,7.15,1.08c3.94.59,7,1.22,6.8,1.39-.41.36-3,.73-21,3-7,.89-13.33,1.71-14,1.84l-1.28.22,2.13-4.24a293.06,293.06,0,0,0,14.14-34.6c14.3-42.18,21.86-89,24.09-149.27.5-13.51.55-68.86.07-79.08l-.3-6.25L490.25,71c-40.33-19-85.61-34.19-126.56-42.36-40.76-8.14-75.86-9.5-113.53-4.4-48.27,6.53-102.08,23.05-153.1,47L89.18,75l-.36,21c-.54,31.54,0,63,1.53,87.39,3.9,62.78,16.21,116.93,36,158.39,1.63,3.42,3,6.25,3,6.3,0,.24-35.22-4.37-36.57-4.78-.72-.23,1.37-.7,6.4-1.44a61.65,61.65,0,0,0,7.64-1.39,31.91,31.91,0,0,0-2.27-5.95c-.15-.17-35.59,5.37-35.81,5.59S66,354.75,62.83,372.45s-5.9,32.21-6.15,32.26a29.07,29.07,0,0,1-4.16-.57Z"/><path id="path17258" class="cls-6" d="M265.47,440.32c-30-.51-69.41-2.7-103.46-5.74-33.33-3-54.89-5.61-101-12.37-1.61-.24-1.74-.36-1.51-1.47.14-.67,3.08-17.18,6.53-36.7s6.4-36.19,6.55-37c.24-1.29.45-1.5,1.27-1.3,1.71.42,29.77,4.4,41.11,5.83,120.63,15.22,235.64,15.3,356.08.23,11.33-1.42,33.45-4.5,41.06-5.73a11.21,11.21,0,0,1,2.73-.24c.27.26,13.6,75.88,13.41,76.07s-6.53,1.11-14.3,2.26a1496.32,1496.32,0,0,1-248.43,16.2Zm6.25-16.22a23.42,23.42,0,0,0,12.86-8.9,21.36,21.36,0,0,0,3.67-17.89c-4.74-20.11-31.33-25.51-44.37-9-3.4,4.3-5.09,11.27-4.17,17.17,2.18,14.1,17.18,22.84,32,18.64Zm43.16-4.81v-5.1h-4.64v-5.9c0-5,.1-5.79.63-5.22.34.38,4.33,5.34,8.86,11,5.74,7.2,8.45,10.27,8.93,10.09a44.39,44.39,0,0,1,6.28-.27h5.6l-.31-8.93c-.17-4.91-.44-12.74-.6-17.39l-.3-8.47h4.57l-.18-5a44.69,44.69,0,0,0-.33-5.15c-.09-.1-5.07,0-11.08.17l-10.93.34V389.6h4.51l.32,5.62a41.93,41.93,0,0,1,.14,5.8c-.18.18-9.15-11.31-14.06-18L310,379.9l-8.93,0-8.93,0v10.21h4.64v24.12h-4.64V424.4h22.73ZM361,423c5.64-.26,10.9-.58,11.69-.7l1.44-.23-.18-3.59c-.1-2-.29-4.27-.42-5.1l-.24-1.52-2.93.3-2.93.3-.34-3.57a18.48,18.48,0,0,1-.14-3.76,21.19,21.19,0,0,1,3.5-.49l3.32-.31-.24-3.76c-.13-2.07-.33-4.61-.46-5.64l-.22-1.87-3.17.18c-3,.17-3.18.12-3.46-.91a12.75,12.75,0,0,1-.3-2.55c0-1.78.65-2,5.68-2h3.6v5.66l3.13-.27,6.78-.55,3.65-.29-.27-2.16c-.15-1.19-.41-4.72-.58-7.84l-.32-5.69h-1.91c-1,0-6.6.3-12.34.66s-13.94.82-18.21,1l-7.77.33v3.12a45.94,45.94,0,0,0,.28,5.15l.28,2,2.2-.16,2.21-.16.3,8.28c.17,4.55.44,10.1.59,12.33l.29,4.06h-4.76v2.67c0,4.6.5,7.54,1.28,7.54.39,0,5.32-.22,11-.48Zm-141.34-.68c6.41-1.51,12.57-6.05,15.32-11.27,2.61-5,3.09-4.55-5.68-4.92l-7.67-.32-1.74,1.83c-2.87,3-7.49,3.62-11.6,1.51-3.61-1.85-5.42-5-5.42-9.33a10.07,10.07,0,0,1,3.65-8.26c4.2-3.69,11.44-2.86,14.14,1.62a5.28,5.28,0,0,0,2.13,2.2c.51.11,3.56.32,6.78.47l5.85.27.33-8.66c.27-7,.22-8.72-.28-9a16.9,16.9,0,0,0-4.56-.4,50.31,50.31,0,0,1-5.62-.29c-1.51-.25-1.71-.16-2,.9l-.3,1.17-2.66-1.37a22.56,22.56,0,0,0-16.94-.92c-15.1,5.2-20.28,25.63-9.49,37.44a24.75,24.75,0,0,0,13.55,7.59,36.91,36.91,0,0,0,12.18-.22Zm173.17-1.09c6.61-3.51,3.89-13.08-3.71-13.05-5.28,0-9,5.33-6.78,9.64A7.82,7.82,0,0,0,392.83,421.22Zm23-2.16c13.5-1.18,31.53-3.13,31.89-3.45s-1.41-17.6-1.78-18.06c-.13-.16-8,.63-11.48,1.16l-1.79.27.32,4,.32,4-5.72.54c-3.14.3-5.85.39-6,.21a15.73,15.73,0,0,1-.59-3.66l-.29-3.32,4.06-.31c5.45-.41,5.39-.38,5.06-2.45-.15-.95-.41-3.45-.58-5.56a14.17,14.17,0,0,0-.6-3.82c-.16,0-2.15.22-4.42.48-4.77.54-4.89.47-4.9-2.86,0-2.12,0-2.15,1.73-2.41,1-.15,3.55-.41,5.77-.59l4-.32.32,2.85c.3,2.69.39,2.84,1.54,2.82,1.84,0,11.68-1.24,11.9-1.46S443,371.4,442.8,371.25s-4.48.42-9.84,1-15,1.55-21.34,2.13c-11,1-11.6,1.11-11.52,2,0,.51.23,2.76.39,5l.31,4.06h4.49l.26,2.43c.52,4.77,1.66,18.52,1.66,20.09s-.06,1.6-1.83,1.6a3.33,3.33,0,0,0-2.14.51,24.81,24.81,0,0,0,0,5.34l.33,4.84,2.16-.24c1.18-.14,5.7-.56,10-.94Zm-239.21-1.62a15.52,15.52,0,0,0,7.08-7.77,20.82,20.82,0,0,0,.6-5.22,12.26,12.26,0,0,0-4.33-9.87c-2.84-2.57-5.2-3.56-12.92-5.45-8.11-2-9.4-2.63-9.4-4.67,0-1.15.27-1.52,1.53-2,3.09-1.29,8,.86,10,4.34,1,1.76,1.06,1.8,4.37,2.11l6.22.58,2.85.27.26-1.8c.15-1,.39-3.57.54-5.74s.38-4.7.51-5.62l.24-1.68-3.39-.31c-1.87-.17-4.57-.43-6-.58l-2.62-.27-.31,1.42-.32,1.41-2.17-1.38a21,21,0,0,0-12.53-3.11c-6.47.33-11.06,2.94-13.33,7.58-2.7,5.53-1.75,11.7,2.4,15.53,2.81,2.59,5.64,3.81,13.71,5.93a50.42,50.42,0,0,1,8,2.57c2.49,1.63.82,4.5-2.61,4.48s-8.39-3-9.61-6c-.62-1.49-.3-1.4-8.54-2.36a21.15,21.15,0,0,0-4.33-.27c-.43.43-2,15.32-1.65,15.62a90.76,90.76,0,0,0,11.33,1.37c.42,0,.89-.51,1-1.17l.3-1.18,1.49,1.12c4.07,3.05,7.51,4,13.79,3.87,4.56-.11,5.06-.22,7.84-1.71Zm302-4.88c6.13-1.45,10.91-4.71,13.29-9.09,2-3.66,2.05-7.32.29-18.68a81.72,81.72,0,0,1-1.17-9.62,3.39,3.39,0,0,1,2-.41,5.28,5.28,0,0,0,2-.23,28,28,0,0,0-.48-5.1c-.54-3.78-.86-4.88-1.42-4.89-.4,0-5.47.67-11.27,1.5l-10.56,1.52,0,1.16c0,.64.28,2.84.59,4.88l.56,3.71,2.34-.1,2.34-.09.58,4.27c2,14.87,1.94,13.8,1,15.93a6,6,0,0,1-8.66,2.52c-1.95-1.18-2.69-3.59-3.87-12.5-1.26-9.56-1.35-8.87,1.15-8.87,2,0,2.08-.07,2-1.28-.08-2.88-1.19-9.16-1.6-9.09l-11.12,1.37c-5.87.71-10.74,1.34-10.82,1.39a46.41,46.41,0,0,0,.42,5.06l.56,5,2.24-.21c2.63-.26,2.23-1.4,3.68,10.31,1,8.44,1.48,10.47,2.85,13.22a18.72,18.72,0,0,0,6.52,6.78C466.39,413.22,473.06,413.86,478.57,412.56Zm-361.88-4.79a24.41,24.41,0,0,0,.38-5,8.42,8.42,0,0,0-2.35-.48c-1.84-.21-2.08-.36-1.9-1.22.11-.55.32-1.78.48-2.75.22-1.37.46-1.72,1.07-1.54.43.12,3,.48,5.8.81,10.45,1.22,16.47-1.7,18.65-9,2.56-8.62-1.65-16.25-10.42-18.86-2.41-.72-22.67-3.85-27.84-4.3-1.11-.1-1.17,0-1.92,4.77a37.42,37.42,0,0,0-.61,5,10.26,10.26,0,0,0,2.28.41l2.13.24-.29,1.91c-.15,1-1,6.4-1.77,11.88l-1.48,10-2.35-.12-2.34-.13-.76,5c-.41,2.74-.7,5-.65,5.08.21.2,21.9,3.32,22.58,3.25.51-.06.85-1.32,1.31-4.87Z"/><path id="path17260" class="cls-6" d="M260.2,411.24a12.3,12.3,0,0,1-6-5.33c-.94-2.25-.88-6.51.11-8.47a10.84,10.84,0,0,1,15.89-4,10,10,0,0,1,.84,16,11.6,11.6,0,0,1-10.88,1.79Z"/><path id="path17262" class="cls-6" d="M116.39,386.5c-1.46-.2-1.54-.3-1.3-1.69.14-.81.39-2.67.56-4.14.35-3.05.66-3.18,4.58-2,3,.9,4,1.88,4,4,0,3.07-3,4.54-7.81,3.87Z"/><path id="path17264" class="cls-6" d="M287.74,509.25c-35.93-19.59-77.47-46.8-101.41-66.43l-1.58-1.3,2.09.25c1.14.14,7.51.58,14.15,1l12.06.73,2.55,1.81c10.15,7.23,20.94,14.61,29.35,20.07,15.86,10.28,47.53,29.09,49,29.09.33,0,5.53-2.85,11.58-6.33,23.16-13.34,44.18-26.77,62.73-40.07l6.28-4.51,12.28-.77c6.75-.42,13.11-.87,14.13-1l1.86-.23L401.18,443c-9.38,8.3-37.49,28.05-60.07,42.2-13.53,8.48-46.14,27.41-47.18,27.38-.08,0-2.87-1.48-6.19-3.29Z"/></g><path id="path4516" class="cls-2" d="M136.27,349.19c-6.44-.78-6.13-.63-7.71-3.75a326.07,326.07,0,0,1-15.19-37.29c-13.05-39-20.34-81.79-23.28-136.83C89.43,159,89,102.07,89.4,87l.34-11.9,9.8-4.53C150.73,47,202.77,31.14,250.16,24.75c17-2.3,24.53-2.77,43.61-2.77,18.5,0,26.13.45,42,2.52,47.48,6.17,102.49,22.8,152.41,46.07L497.68,75l.3,2.46c.5,4.05.43,78.69-.08,89.45-3.37,70.78-14.24,124.21-34.53,169.71-2.06,4.64-5.27,11.25-5.66,11.67a80.51,80.51,0,0,1-10.29,1.19,11.5,11.5,0,0,1,1.26-2.63c.77-1.36,3-5.93,4.94-10.14,26.65-57.63,37.7-128.7,36.17-232.63l-.34-23.27-7.95-3.65C416.84,47.47,348.66,30.53,293.84,30.51c-54.3,0-122.21,16.82-186.62,46.25L98.59,80.7l-.3,5.87c-.46,9.17-.35,58.77.17,72.69C101.4,237.49,113.6,295.47,137,342.4c2,4,3.39,7.28,3.07,7.24Z"/><path id="path4518" class="cls-2" d="M286.11,489.77c-16.23-9.24-34.9-20.74-48.94-30.14-10.47-7-22.73-15.64-22.73-16a64.18,64.18,0,0,1,7.77.09L230,444l2.32,1.71c9.76,7.16,36.05,23.72,54.73,34.45,5.79,3.33,6.6,3.67,7.73,3.25,4.17-1.57,35.05-20.46,52.21-31.92L358.18,444l7.81-.33c4.77-.2,7.63-.16,7.35.1-2.16,2-25.53,17.88-37.16,25.26C322.62,477.67,294.87,494,293.79,494c-.14,0-3.6-1.9-7.68-4.22Z"/><path id="path4520" class="cls-2" d="M158.81,205.78c-.1-65.78-.06-119.6.09-119.6s26.44,17.37,58.41,38.59l89.87,59.64c17.45,11.58,31.55,21.23,31.32,21.43-1.76,1.59-71.74,48.23-159.78,106.49L159,325.38Zm78.73,32.35c26.57-17.61,48.32-32.15,48.33-32.31s-20.7-14-46-30.82-47.25-31.33-48.71-32.32l-2.67-1.78v64.77c0,35.63.18,64.71.39,64.62s22.13-14.56,48.69-32.16Z"/><path id="path4522" class="cls-2" d="M257.59,307.8V290.41l4.06-2.61c13.79-8.9,123.05-81.75,123.05-82.05S372,197,356.52,186.68L293,144.51,257.59,121V103.58c0-13.84.12-17.38.58-17.1,1.34.82,126.74,84.1,151.87,100.87l27.43,18.3-3.3,2.27C423,215.66,264.41,321,259.33,324.13l-1.74,1.06Z"/><path id="path4524" class="cls-2" d="M331.49,312.12l20.33-13.45h86.24v26.91H311.17Z"/></g></g></g></svg>