<?xml version="1.0" encoding="UTF-8" standalone="no"?>
<!-- Created with Inkscape (http://www.inkscape.org/) -->

<svg
   xmlns:dc="http://purl.org/dc/elements/1.1/"
   xmlns:cc="http://creativecommons.org/ns#"
   xmlns:rdf="http://www.w3.org/1999/02/22-rdf-syntax-ns#"
   xmlns:svg="http://www.w3.org/2000/svg"
   xmlns="http://www.w3.org/2000/svg"
   xmlns:sodipodi="http://sodipodi.sourceforge.net/DTD/sodipodi-0.dtd"
   xmlns:inkscape="http://www.inkscape.org/namespaces/inkscape"
   id="svg2"
   version="1.1"
   inkscape:version="0.91 r13725"
   xml:space="preserve"
   width="275.092377342"
   height="53.980499"
   viewBox="0 0 329.99164 53.980499"
   sodipodi:docname="kemp_logo.svg"><metadata
     id="metadata8"><rdf:RDF><cc:Work
         rdf:about=""><dc:format>image/svg+xml</dc:format><dc:type
           rdf:resource="http://purl.org/dc/dcmitype/StillImage" /><dc:title></dc:title></cc:Work></rdf:RDF></metadata><defs
     id="defs6"><clipPath
       clipPathUnits="userSpaceOnUse"
       id="clipPath20"><path
         d="M 0,50 300,50 300,0 0,0 0,50 Z"
         id="path22"
         inkscape:connector-curvature="0" /></clipPath></defs><sodipodi:namedview
     pagecolor="#ffffff"
     bordercolor="#666666"
     borderopacity="1"
     objecttolerance="10"
     gridtolerance="10"
     guidetolerance="10"
     inkscape:pageopacity="0"
     inkscape:pageshadow="2"
     inkscape:window-width="640"
     inkscape:window-height="480"
     id="namedview4"
     showgrid="false"
     inkscape:zoom="1.0853333"
     inkscape:cx="164.99625"
     inkscape:cy="26.74925"
     inkscape:window-x="57"
     inkscape:window-y="21"
     inkscape:window-maximized="0"
     inkscape:current-layer="g10"
     fit-margin-top="0"
     fit-margin-left="0"
     fit-margin-right="0"
     fit-margin-bottom="0" /><g
     id="g10"
     inkscape:groupmode="layer"
     inkscape:label="300x50_KEMP_wADHoriz_FINAL_HP"
     transform="matrix(1.25,0,0,-1.25,-22.50375,58.48125)"><g
       id="g12"
       transform="translate(135.915,36.2676)"><path
         d="M 0,0 5.601,0 2.804,7.067 0,0 Z m -4.625,-6.261 6.493,16.369 2.302,0 6.393,-16.369 -2.506,0 -1.779,4.523 -6.943,0 -1.806,-4.523 -2.154,0 z"
         style="fill:#000000;fill-opacity:1;fill-rule:nonzero;stroke:none"
         id="path14"
         inkscape:connector-curvature="0" /></g><g
       id="g16"><g
         id="g18"
         clip-path="url(#clipPath20)"><g
           id="g24"
           transform="translate(151.8701,38.2686)"><path
             d="m 0,0 0.941,0 c 1.378,0 2.444,0.316 3.196,0.95 0.752,0.635 1.128,1.534 1.128,2.7 0,0.974 -0.297,1.67 -0.891,2.09 C 3.78,6.161 2.798,6.371 1.428,6.371 L 0,6.371 0,0 Z m -2.301,-8.262 0,16.369 4.457,0 C 3.439,8.107 4.43,8.003 5.126,7.792 5.823,7.582 6.394,7.212 6.835,6.681 7.418,5.98 7.709,5.024 7.709,3.816 7.709,2.076 7.118,0.712 5.94,-0.276 4.759,-1.265 3.122,-1.759 1.028,-1.759 l -1.028,0 0,-6.503 -2.301,0 z"
             style="fill:#000000;fill-opacity:1;fill-rule:nonzero;stroke:none"
             id="path26"
             inkscape:connector-curvature="0" /></g><g
           id="g28"
           transform="translate(165.1152,38.2686)"><path
             d="m 0,0 0.94,0 c 1.38,0 2.445,0.316 3.197,0.95 0.753,0.635 1.128,1.534 1.128,2.7 0,0.974 -0.297,1.67 -0.89,2.09 C 3.78,6.161 2.799,6.371 1.428,6.371 L 0,6.371 0,0 Z m -2.299,-8.262 0,16.369 4.455,0 C 3.439,8.107 4.43,8.003 5.127,7.792 5.824,7.582 6.394,7.212 6.835,6.681 7.419,5.98 7.709,5.024 7.709,3.816 7.709,2.076 7.118,0.712 5.94,-0.276 4.76,-1.265 3.122,-1.759 1.028,-1.759 l -1.028,0 0,-6.503 -2.299,0 z"
             style="fill:#000000;fill-opacity:1;fill-rule:nonzero;stroke:none"
             id="path30"
             inkscape:connector-curvature="0" /></g><g
           id="g32"
           transform="translate(176.0605,30.0068)"><path
             d="m 0,0 0,16.369 2.323,0 0,-14.634 7.366,0 L 9.689,0 0,0 Z"
             style="fill:#000000;fill-opacity:1;fill-rule:nonzero;stroke:none"
             id="path34"
             inkscape:connector-curvature="0" /></g><path
           d="m 188.852,46.376 2.324,0 0,-16.369 -2.324,0 0,16.369 z"
           style="fill:#000000;fill-opacity:1;fill-rule:nonzero;stroke:none"
           id="path36"
           inkscape:connector-curvature="0" /><g
           id="g38"
           transform="translate(208.4121,30.8467)"><path
             d="m 0,0 c -1.614,-0.834 -3.376,-1.25 -5.286,-1.25 -2.543,0 -4.51,0.745 -5.896,2.235 -1.385,1.489 -2.079,3.606 -2.079,6.348 0,2.735 0.707,4.854 2.118,6.355 1.414,1.5 3.406,2.25 5.98,2.25 1.459,0 3.175,-0.24 5.142,-0.719 l 0,-2.179 c -2.242,0.775 -3.97,1.162 -5.187,1.162 -1.777,0 -3.152,-0.6 -4.126,-1.803 -0.974,-1.202 -1.46,-2.897 -1.46,-5.087 0,-2.095 0.52,-3.743 1.561,-4.945 1.037,-1.202 2.462,-1.803 4.267,-1.803 1.541,0 3.198,0.476 4.966,1.427 L 0,0 Z"
             style="fill:#000000;fill-opacity:1;fill-rule:nonzero;stroke:none"
             id="path40"
             inkscape:connector-curvature="0" /></g><g
           id="g42"
           transform="translate(215.2119,36.2676)"><path
             d="M 0,0 5.601,0 2.803,7.067 0,0 Z m -4.623,-6.261 6.492,16.369 2.3,0 6.393,-16.369 -2.506,0 -1.779,4.523 -6.942,0 -1.807,-4.523 -2.151,0 z"
             style="fill:#000000;fill-opacity:1;fill-rule:nonzero;stroke:none"
             id="path44"
             inkscape:connector-curvature="0" /></g><g
           id="g46"
           transform="translate(232.7598,30.0068)"><path
             d="m 0,0 0,14.633 -5.809,0 0,1.736 13.939,0 0,-1.736 -5.809,0 L 2.321,0 0,0 Z"
             style="fill:#000000;fill-opacity:1;fill-rule:nonzero;stroke:none"
             id="path48"
             inkscape:connector-curvature="0" /></g><path
           d="m 243.903,46.376 2.321,0 0,-16.369 -2.321,0 0,16.369 z"
           style="fill:#000000;fill-opacity:1;fill-rule:nonzero;stroke:none"
           id="path50"
           inkscape:connector-curvature="0" /><g
           id="g52"
           transform="translate(257.8555,31.334)"><path
             d="m 0,0 c 1.631,0 2.902,0.606 3.817,1.819 0.913,1.213 1.371,2.9 1.371,5.06 0,2.145 -0.458,3.822 -1.371,5.027 -0.915,1.207 -2.186,1.809 -3.817,1.809 -1.63,0 -2.9,-0.602 -3.816,-1.809 -0.913,-1.205 -1.371,-2.882 -1.371,-5.027 0,-2.16 0.458,-3.847 1.371,-5.06 C -2.9,0.606 -1.63,0 0,0 m 0,-1.737 c -2.322,0 -4.179,0.78 -5.57,2.34 -1.389,1.559 -2.084,3.644 -2.084,6.254 0,2.61 0.695,4.696 2.084,6.256 1.391,1.559 3.248,2.338 5.57,2.338 2.323,0 4.181,-0.779 5.569,-2.338 C 6.96,11.553 7.653,9.467 7.653,6.857 7.653,4.247 6.96,2.162 5.569,0.603 4.181,-0.957 2.323,-1.737 0,-1.737"
             style="fill:#000000;fill-opacity:1;fill-rule:nonzero;stroke:none"
             id="path54"
             inkscape:connector-curvature="0" /></g><g
           id="g56"
           transform="translate(269.4863,30.0068)"><path
             d="m 0,0 0,16.369 2.279,0 8.241,-12.641 0,12.641 1.99,0 L 12.51,0 10.243,0 1.992,12.638 1.992,0 0,0 Z"
             style="fill:#000000;fill-opacity:1;fill-rule:nonzero;stroke:none"
             id="path58"
             inkscape:connector-curvature="0" /></g><g
           id="g60"
           transform="translate(133.8047,5.4385)"><path
             d="M 0,0 2.976,0 C 5.1,0 6.603,0.57 7.489,1.715 8.44,2.932 8.915,4.564 8.915,6.614 c 0,1.925 -0.468,3.437 -1.404,4.534 -0.569,0.671 -1.246,1.131 -2.035,1.378 -0.789,0.247 -1.977,0.37 -3.562,0.37 L 0,12.896 0,0 Z m -2.321,-1.737 0,16.37 5.44,0 c 1.622,0 2.934,-0.18 3.933,-0.541 0.999,-0.363 1.863,-0.975 2.594,-1.836 1.156,-1.372 1.736,-3.179 1.736,-5.422 0,-2.527 -0.679,-4.578 -2.034,-6.147 C 8.609,-0.177 7.756,-0.796 6.786,-1.173 5.815,-1.548 4.605,-1.737 3.152,-1.737 l -5.473,0 z"
             style="fill:#000000;fill-opacity:1;fill-rule:nonzero;stroke:none"
             id="path62"
             inkscape:connector-curvature="0" /></g><g
           id="g64"
           transform="translate(149.1738,3.7012)"><path
             d="m 0,0 0,16.37 9.147,0 0,-1.736 -6.824,0 0,-5.253 5.718,0 0,-1.716 -5.718,0 0,-5.928 7.301,0 L 9.624,0 0,0 Z"
             style="fill:#000000;fill-opacity:1;fill-rule:nonzero;stroke:none"
             id="path66"
             inkscape:connector-curvature="0" /></g><g
           id="g68"
           transform="translate(162.1758,3.7012)"><path
             d="m 0,0 0,16.37 2.323,0 0,-14.633 7.366,0 L 9.689,0 0,0 Z"
             style="fill:#000000;fill-opacity:1;fill-rule:nonzero;stroke:none"
             id="path70"
             inkscape:connector-curvature="0" /></g><path
           d="m 174.968,20.071 2.323,0 0,-16.37 -2.323,0 0,16.37 z"
           style="fill:#000000;fill-opacity:1;fill-rule:nonzero;stroke:none"
           id="path72"
           inkscape:connector-curvature="0" /><g
           id="g74"
           transform="translate(186.6982,3.7012)"><path
             d="m 0,0 -6.183,16.37 2.317,0 L 1.197,2.969 6.094,16.37 8.13,16.37 2.191,0 0,0 Z"
             style="fill:#000000;fill-opacity:1;fill-rule:nonzero;stroke:none"
             id="path76"
             inkscape:connector-curvature="0" /></g><g
           id="g78"
           transform="translate(197.7656,3.7012)"><path
             d="m 0,0 0,16.37 9.145,0 0,-1.736 -6.823,0 0,-5.253 5.719,0 0,-1.716 -5.719,0 0,-5.928 7.3,0 L 9.622,0 0,0 Z"
             style="fill:#000000;fill-opacity:1;fill-rule:nonzero;stroke:none"
             id="path80"
             inkscape:connector-curvature="0" /></g><g
           id="g82"
           transform="translate(213.0684,12.3633)"><path
             d="m 0,0 0.754,0 c 1.434,0 2.521,0.29 3.27,0.872 0.747,0.583 1.118,1.436 1.118,2.557 0,1.695 -1.225,2.543 -3.679,2.543 L 0,5.972 0,0 Z m -2.302,-8.662 0,16.37 4.957,0 C 4.226,7.708 5.429,7.362 6.267,6.669 7.104,5.977 7.521,4.969 7.521,3.65 7.521,2.609 7.232,1.683 6.652,0.872 6.074,0.062 5.26,-0.561 4.215,-0.997 l 5.464,-7.665 -2.854,0 -4.663,6.926 -2.162,0 0,-6.926 -2.302,0 z"
             style="fill:#000000;fill-opacity:1;fill-rule:nonzero;stroke:none"
             id="path84"
             inkscape:connector-curvature="0" /></g><g
           id="g86"
           transform="translate(229.3545,3.7012)"><path
             d="m 0,0 0,6.836 -5.462,9.534 2.649,0 4.255,-7.398 4.577,7.398 2.155,0 L 2.323,6.88 2.323,0 0,0 Z"
             style="fill:#000000;fill-opacity:1;fill-rule:nonzero;stroke:none"
             id="path88"
             inkscape:connector-curvature="0" /></g><g
           id="g90"
           transform="translate(120.9844,3.6006)"><path
             d="m 0,0 c -0.434,0 -0.788,0.353 -0.788,0.785 l 0,41.203 c 0,0.434 0.354,0.788 0.788,0.788 0.436,0 0.787,-0.354 0.787,-0.788 l 0,-41.203 C 0.787,0.353 0.436,0 0,0"
             style="fill:#000000;fill-opacity:1;fill-rule:nonzero;stroke:none"
             id="path92"
             inkscape:connector-curvature="0" /></g><g
           id="g94"
           transform="translate(81.4131,21.0352)"><path
             d="m 0,0 c -0.076,2.994 -0.154,6.494 -0.116,10.576 l -0.115,0 C -1.049,7.116 -2.137,3.188 -2.992,0.312 l -2.608,-9.136 -5.479,0 -2.216,9.096 C -13.957,3.111 -14.773,7 -15.356,10.576 l -0.079,0 C -15.59,6.882 -15.746,2.994 -15.86,0 l -0.391,-9.368 -6.455,0 1.595,26.203 9.449,0 1.748,-7.037 c 0.701,-2.916 1.478,-6.415 2.023,-9.605 l 0.154,0 c 0.739,3.19 1.594,6.883 2.374,9.645 l 1.941,6.997 9.255,0 1.322,-26.203 -6.843,0 L 0,0 Z"
             style="fill:#000000;fill-opacity:1;fill-rule:nonzero;stroke:none"
             id="path96"
             inkscape:connector-curvature="0" /></g><g
           id="g98"
           transform="translate(97.7002,25.9346)"><path
             d="m 0,0 c 0.39,-0.038 0.855,-0.076 1.595,-0.076 2.759,0 4.47,1.398 4.47,3.651 0,1.946 -1.323,3.267 -3.966,3.267 C 1.05,6.842 0.352,6.765 0,6.687 L 0,0 Z m -6.959,11.585 c 1.904,0.311 4.666,0.548 8.671,0.548 3.77,0 6.454,-0.664 8.28,-2.063 1.787,-1.321 2.993,-3.654 2.993,-6.337 0,-2.645 -0.894,-4.977 -2.527,-6.454 C 8.32,-4.627 5.249,-5.444 1.712,-5.444 1.05,-5.444 0.429,-5.405 0,-5.365 l 0,-8.903 -6.959,0 0,25.853 z"
             style="fill:#000000;fill-opacity:1;fill-rule:nonzero;stroke:none"
             id="path100"
             inkscape:connector-curvature="0" /></g><g
           id="g102"
           transform="translate(46.9678,17.4189)"><path
             d="m 0,0 0,4.821 9.409,0 0,5.677 -9.409,0 0,4.238 9.993,0 0,5.715 -14.873,0 c 0.536,-0.837 0.799,-1.817 0.736,-2.83 -0.08,-1.258 -0.644,-2.408 -1.584,-3.236 l -1.307,-1.162 0,-11.691 1.741,-1.973 c 0.819,-0.929 1.29,-2.036 1.328,-3.116 0.027,-0.786 -0.173,-1.535 -0.569,-2.195 l 15.072,0 0,5.752 L 0,0 Z"
             style="fill:#000000;fill-opacity:1;fill-rule:nonzero;stroke:none"
             id="path104"
             inkscape:connector-curvature="0" /></g><g
           id="g106"
           transform="translate(24.458,18.7383)"><path
             d="m 0,0 c -1.304,0 -2.546,0.561 -3.408,1.537 -1.655,1.878 -1.476,4.755 0.401,6.412 l 4.128,3.642 0,4.847 c 0,2.116 -1.696,3.826 -3.788,3.826 -2.093,0 -3.788,-1.71 -3.788,-3.826 l 0,-20.534 c 0,-2.113 1.695,-3.825 3.788,-3.825 2.092,0 3.788,1.712 3.788,3.825 l 0,4.241 C 0.759,0.049 0.381,0 0,0"
             style="fill:#000000;fill-opacity:1;fill-rule:nonzero;stroke:none"
             id="path108"
             inkscape:connector-curvature="0" /></g><g
           id="g110"
           transform="translate(40.5693,16.0059)"><path
             d="m 0,0 -8.499,9.63 8.193,7.267 c 1.343,1.184 1.471,3.235 0.286,4.579 -1.186,1.341 -3.234,1.47 -4.579,0.284 L -18.259,9.708 c -1.343,-1.187 -1.472,-3.236 -0.287,-4.576 1.186,-1.347 3.234,-1.476 4.579,-0.29 l 1.227,1.119 8.498,-9.634 C -3.055,-5.016 -1.317,-5.455 0.026,-4.268 1.368,-3.083 1.186,-1.346 0,0"
             style="fill:#000000;fill-opacity:1;fill-rule:nonzero;stroke:none"
             id="path112"
             inkscape:connector-curvature="0" /></g><g
           id="g114"
           transform="translate(39.4824,14.8877)"><path
             d="m 0,0 -9.52,10.781 -0.091,0.107 0.011,0.01 c 4.102,3.62 9.353,8.296 9.353,8.296 0.697,0.616 0.763,1.679 0.148,2.376 -0.616,0.698 -1.678,0.762 -2.377,0.148 L -16.153,9.648 c -0.698,-0.614 -0.742,-1.677 -0.126,-2.374 0.616,-0.697 1.669,-0.763 2.353,-0.148 l 2.38,2.178 0.042,-0.047 9.614,-10.884 c 1.045,-1.017 1.69,-0.545 1.69,-0.545 0.181,0.075 0.577,0.427 0.606,0.623 C 0.738,-0.845 0,0 0,0"
             style="fill:#fed204;fill-opacity:1;fill-rule:nonzero;stroke:none"
             id="path116"
             inkscape:connector-curvature="0" /></g></g></g></g></svg>
